<?xml version="1.0" encoding="utf-8"?>
<!-- Generator: Adobe Illustrator 16.0.0, SVG Export Plug-In . SVG Version: 6.00 Build 0)  -->
<!DOCTYPE svg PUBLIC "-//W3C//DTD SVG 1.1//EN" "http://www.w3.org/Graphics/SVG/1.1/DTD/svg11.dtd">
<svg version="1.1" id="Layer_1" xmlns="http://www.w3.org/2000/svg" xmlns:xlink="http://www.w3.org/1999/xlink" x="0px" y="0px"
	 width="80px" height="80px" viewBox="0 0 80 80" enable-background="new 0 0 80 80" xml:space="preserve">
<g id="Cursors">
	<g>
		<circle fill="#A8ACAF" cx="40" cy="40" r="40"/>
		<circle fill="#FFFFFF" cx="40" cy="40" r="35"/>
		<polyline fill="#A8ACAF" points="69.77,21.586 29.262,35.427 71.194,55.888 		"/>
		<polygon fill="#A8ACAF" points="37.081,49.393 30.095,45.104 28,44.24 28,43 28.312,43 33.279,42.633 34.508,42.309 
			35.005,42.014 35.37,41.59 35.684,41.015 35.946,40.124 36.5,38.582 37,36.858 37,35.129 37,33.143 36.395,31.834 35.882,31.13 
			35.364,30.766 34.754,30.528 34.056,30.242 33.132,30.057 31.166,29.9 27.372,29.771 21.385,29.64 18.167,29.796 16.834,30.057 
			16.022,30.242 15.528,30.841 15.262,31.574 15.029,32.568 14.899,34.346 14.742,37.17 14.874,39.916 15.029,40.937 15.499,41.511 
			16.022,41.929 16.625,42.242 17.435,42.423 22.508,43 26,43 26,44.399 15.075,49.446 14.934,49.601 14.875,50.29 16.387,55 
			35.579,55 35.865,54.419 35.727,53.657 37,49.918 37,49.631 		"/>
		<g>
			<polygon fill="#FFFFFF" points="49,32.497 49,42.033 58,46.007 58,36.009 			"/>
			<polygon fill="#FFFFFF" points="49.018,30.824 58.722,34.462 68.468,30.824 58.722,28.189 			"/>
			<polygon fill="#FFFFFF" points="60,36.009 60,46.048 69,42.075 69,32.497 			"/>
		</g>
	</g>
</g>
</svg>
