<?xml version="1.0" encoding="utf-8"?>
<!-- Generator: Adobe Illustrator 16.0.0, SVG Export Plug-In . SVG Version: 6.00 Build 0)  -->
<!DOCTYPE svg PUBLIC "-//W3C//DTD SVG 1.1//EN" "http://www.w3.org/Graphics/SVG/1.1/DTD/svg11.dtd">
<svg version="1.1" id="Layer_1" xmlns="http://www.w3.org/2000/svg" xmlns:xlink="http://www.w3.org/1999/xlink" x="0px" y="0px"
	 width="70px" height="70px" viewBox="0 0 70 70" enable-background="new 0 0 70 70" xml:space="preserve">
<g id="Cursors">
	<g>
		<circle fill="#FFFFFF" cx="35" cy="35" r="35"/>
		<g id="ZfzYRi_2_">
			<polygon fill="#E74C3B" points="24.657,30.443 24.657,40.063 34.06,44.072 34.06,33.987 			"/>
			<polygon fill="#E74C3B" points="25.064,28.756 34.853,32.426 44.684,28.756 34.853,26.098 			"/>
			<polygon fill="#E74C3B" points="35.94,33.987 35.94,44.113 45.342,40.105 45.342,30.443 			"/>
			<path fill="#E74C3B" d="M51.924,15.169v30.97l-2.303,2.817H20.169l-3.038-2.927l0.232-30.872l-3.988-1.929v43.543l43.25-0.203
				V13.228L51.924,15.169z M46.531,53.67c-0.857,0-1.551-0.694-1.551-1.55c0-0.857,0.694-1.55,1.551-1.55
				c0.856,0,1.55,0.693,1.55,1.55C48.08,52.977,47.386,53.67,46.531,53.67z"/>
			<polygon fill="#E74C3B" points="19.017,18.87 28.271,18.87 30.866,19.81 19.017,19.81 			"/>
			<polygon fill="#E74C3B" points="50.043,18.87 41.498,18.87 38.903,19.81 50.043,19.81 			"/>
			<polygon fill="#E74C3B" points="28.904,16.989 34.853,22.97 40.802,16.989 			"/>
		</g>
	</g>
</g>
</svg>
