<?xml version="1.0" encoding="utf-8"?>
<!-- Generator: Adobe Illustrator 16.0.0, SVG Export Plug-In . SVG Version: 6.00 Build 0)  -->
<!DOCTYPE svg PUBLIC "-//W3C//DTD SVG 1.1//EN" "http://www.w3.org/Graphics/SVG/1.1/DTD/svg11.dtd">
<svg version="1.1" xmlns="http://www.w3.org/2000/svg" xmlns:xlink="http://www.w3.org/1999/xlink" x="0px" y="0px" width="24px"
	 height="17px" viewBox="0 0 24 17" enable-background="new 0 0 24 17" xml:space="preserve">
<g id="Layer_1">
	<g id="Cursors">
	</g>
	<path fill="#F1C40F" d="M3.564,0C1.363,2.17,0,5.253,0,8.546C0,11.838,1.363,14.825,3.564,17l2.064-2.163
		c-1.638-1.614-2.625-3.811-2.625-6.291c0-2.478,0.987-4.769,2.625-6.385L3.564,0z M20.435,0l-2.062,2.161
		c1.655,1.658,2.625,3.873,2.625,6.385c0,2.512-0.981,4.671-2.625,6.291L20.435,17C22.633,14.837,24,11.868,24,8.546
		C24,5.229,22.624,2.191,20.435,0z M8,4.227C7,5.314,6.109,6.896,6.109,8.546c0,1.647,0.641,3.14,1.726,4.226l2.038-2.159
		c-0.535-0.536-0.857-1.25-0.857-2.071c0-0.816,0.411-1.622,0.947-2.158L8,4.223V4.227z M16,4.227l-1.955,2.16
		c0.551,0.549,0.898,1.303,0.898,2.159c0,0.856-0.271,1.518-0.816,2.069l2.078,2.159c1.069-1.07,1.678-2.558,1.678-4.226
		c0-1.667-0.884-3.244-1.884-4.32V4.227z"/>
	<rect x="-255.5" y="-9" fill="none" stroke="#FFFFFF" stroke-width="5" stroke-miterlimit="10" width="512" height="278"/>
</g>
<g id="Annotative" display="none">
</g>
</svg>
