<?xml version="1.0" encoding="utf-8"?>
<!-- Generator: Adobe Illustrator 16.0.0, SVG Export Plug-In . SVG Version: 6.00 Build 0)  -->
<!DOCTYPE svg PUBLIC "-//W3C//DTD SVG 1.1//EN" "http://www.w3.org/Graphics/SVG/1.1/DTD/svg11.dtd">
<svg version="1.1" id="Layer_1" xmlns="http://www.w3.org/2000/svg" xmlns:xlink="http://www.w3.org/1999/xlink" x="0px" y="0px"
	 width="70px" height="70px" viewBox="0 0 70 70" enable-background="new 0 0 70 70" xml:space="preserve">
<g id="Cursors">
	<g>
		<circle fill="#FFFFFF" cx="35" cy="35" r="35"/>
		<g>
			<polygon fill="none" stroke="#F1C40F" stroke-miterlimit="10" points="23.5,8.504 23.5,20.383 34.5,25.333 34.5,12.88 			"/>
			<polygon fill="none" stroke="#F1C40F" stroke-miterlimit="10" points="24.243,6.592 35.333,10.75 46.471,6.592 35.333,3.581 			
				"/>
			<polygon fill="none" stroke="#F1C40F" stroke-miterlimit="10" points="36.5,12.778 36.5,24.992 47.5,20.158 47.5,8.504 			"/>
		</g>
		<g>
			<polygon fill="#F1C40F" points="23,49.504 23,61.383 34,66.333 34,53.88 			"/>
			<polygon fill="#F1C40F" points="24.243,47.592 35.333,51.75 46.471,47.592 35.333,44.581 			"/>
			<polygon fill="#F1C40F" points="36,53.778 36,65.992 47,61.158 47,49.504 			"/>
		</g>
		<polygon fill="#F1C40F" points="23.5,32.195 35.357,37.693 46.5,32.195 		"/>
	</g>
</g>
</svg>
