<?xml version="1.0" encoding="utf-8"?>
<!-- Generator: Adobe Illustrator 16.0.0, SVG Export Plug-In . SVG Version: 6.00 Build 0)  -->
<!DOCTYPE svg PUBLIC "-//W3C//DTD SVG 1.1//EN" "http://www.w3.org/Graphics/SVG/1.1/DTD/svg11.dtd">
<svg version="1.1" xmlns="http://www.w3.org/2000/svg" xmlns:xlink="http://www.w3.org/1999/xlink" x="0px" y="0px" width="169px"
	 height="25px" viewBox="0 0 169 25" enable-background="new 0 0 169 25" xml:space="preserve">
<g id="Layer_1">
	<g id="Cursors">
	</g>
	<rect x="-47.5" y="-85.5" fill="none" stroke="#FFFFFF" stroke-width="5" stroke-miterlimit="10" width="228" height="467"/>
	<g>
		<path fill="none" stroke="#FFFFFF" stroke-miterlimit="10" d="M128.499,12.5c0,6.626-5.373,12-12,12h-104c-6.627,0-12-5.374-12-12
			l0,0c0-6.628,5.373-12,12-12h104C123.127,0.5,128.499,5.872,128.499,12.5L128.499,12.5z"/>
		<path fill="#FFFFFF" stroke="#FFFFFF" stroke-miterlimit="10" d="M168.5,12.5c0,6.626-5.373,12-12,12h-8c-6.627,0-12-5.374-12-12
			l0,0c0-6.628,5.373-12,12-12h8C163.127,0.5,168.5,5.872,168.5,12.5L168.5,12.5z"/>
	</g>
</g>
<g id="Annotative" display="none">
</g>
</svg>
