<?xml version="1.0" encoding="utf-8"?>
<!-- Generator: Adobe Illustrator 16.0.0, SVG Export Plug-In . SVG Version: 6.00 Build 0)  -->
<!DOCTYPE svg PUBLIC "-//W3C//DTD SVG 1.1//EN" "http://www.w3.org/Graphics/SVG/1.1/DTD/svg11.dtd">
<svg version="1.1" id="Layer_1" xmlns="http://www.w3.org/2000/svg" xmlns:xlink="http://www.w3.org/1999/xlink" x="0px" y="0px"
	 width="70px" height="70px" viewBox="0 0 70 70" enable-background="new 0 0 70 70" xml:space="preserve">
<g id="Cursors">
	<g>
		<circle fill="#FFFFFF" cx="35" cy="35" r="35"/>
		<polyline fill="#1ABC9C" points="64.77,16.586 24.262,30.427 66.194,50.888 		"/>
		<polygon fill="#1ABC9C" points="32.081,44.393 25.095,40.104 23,39.24 23,38 23.312,38 28.279,37.633 29.508,37.309 
			30.005,37.014 30.37,36.59 30.684,36.015 30.946,35.124 31.5,33.582 32,31.858 32,30.129 32,28.143 31.395,26.834 30.882,26.13 
			30.364,25.766 29.754,25.528 29.056,25.242 28.132,25.057 26.166,24.9 22.372,24.771 16.385,24.64 13.167,24.796 11.834,25.057 
			11.022,25.242 10.528,25.841 10.262,26.574 10.029,27.568 9.899,29.346 9.742,32.17 9.874,34.916 10.029,35.937 10.499,36.511 
			11.022,36.929 11.625,37.242 12.435,37.423 17.508,38 21,38 21,39.399 10.075,44.446 9.934,44.601 9.875,45.29 11.387,50 
			30.579,50 30.865,49.419 30.727,48.657 32,44.918 32,44.631 		"/>
		<g>
			<polygon fill="#FFFFFF" points="44,27.497 44,37.033 53,41.007 53,31.009 			"/>
			<polygon fill="#FFFFFF" points="44.018,25.824 53.722,29.462 63.468,25.824 53.722,23.189 			"/>
			<polygon fill="#FFFFFF" points="55,31.009 55,41.048 64,37.075 64,27.497 			"/>
		</g>
	</g>
</g>
</svg>
