<?xml version="1.0" encoding="utf-8"?>
<!-- Generator: Adobe Illustrator 16.0.0, SVG Export Plug-In . SVG Version: 6.00 Build 0)  -->
<!DOCTYPE svg PUBLIC "-//W3C//DTD SVG 1.1//EN" "http://www.w3.org/Graphics/SVG/1.1/DTD/svg11.dtd">
<svg version="1.1" id="Layer_1" xmlns="http://www.w3.org/2000/svg" xmlns:xlink="http://www.w3.org/1999/xlink" x="0px" y="0px"
	 width="80px" height="80px" viewBox="0 0 80 80" enable-background="new 0 0 80 80" xml:space="preserve">
<g id="Cursors">
	<g>
		<circle fill="#879191" cx="40" cy="40" r="40"/>
		<circle fill="#FFFFFF" cx="40" cy="40" r="35"/>
		<g id="ZfzYRi_4_">
			<polygon fill="#879191" points="29.657,35.443 29.657,45.063 39.06,49.072 39.06,38.987 			"/>
			<polygon fill="#879191" points="30.065,33.756 39.853,37.426 49.684,33.756 39.853,31.098 			"/>
			<polygon fill="#879191" points="40.94,38.987 40.94,49.113 50.343,45.105 50.343,35.443 			"/>
			<path fill="#879191" d="M56.924,20.169v30.97l-2.303,2.817H25.17l-3.038-2.927l0.232-30.872l-3.988-1.929v43.543l43.25-0.203
				V18.228L56.924,20.169z M51.531,58.67c-0.857,0-1.551-0.694-1.551-1.55c0-0.857,0.694-1.55,1.551-1.55
				c0.856,0,1.55,0.693,1.55,1.55C53.081,57.977,52.387,58.67,51.531,58.67z"/>
			<polygon fill="#879191" points="24.017,23.87 33.271,23.87 35.866,24.81 24.017,24.81 			"/>
			<polygon fill="#879191" points="55.044,23.87 46.499,23.87 43.904,24.81 55.044,24.81 			"/>
			<polygon fill="#879191" points="33.904,21.989 39.853,27.97 45.803,21.989 			"/>
		</g>
	</g>
</g>
</svg>
