<?xml version="1.0" encoding="utf-8"?>
<!-- Generator: Adobe Illustrator 16.0.0, SVG Export Plug-In . SVG Version: 6.00 Build 0)  -->
<!DOCTYPE svg PUBLIC "-//W3C//DTD SVG 1.1//EN" "http://www.w3.org/Graphics/SVG/1.1/DTD/svg11.dtd">
<svg version="1.1" xmlns="http://www.w3.org/2000/svg" xmlns:xlink="http://www.w3.org/1999/xlink" x="0px" y="0px" width="24px"
	 height="24px" viewBox="0 0 24 24" enable-background="new 0 0 24 24" xml:space="preserve">
<g id="Layer_1">
	<g id="Cursors">
	</g>
	<g>
		<path fill="#A8ACAF" d="M11.229,20H4v-7c0-1.104-0.896-2-2-2s-2,0.896-2,2v8.771V22v0.229C0,23.207,0.793,24,1.771,24h9.458
			C12.207,24,13,23.207,13,22.229v-0.458C13,20.793,12.207,20,11.229,20z"/>
		<path fill="#A8ACAF" d="M22.125,0h-9.25C11.839,0,11,0.839,11,1.875v0.25C11,3.161,11.839,4,12.875,4H20v7c0,1.105,0.896,2,2,2
			s2-0.895,2-2V2.125V2V1.875C24,0.839,23.161,0,22.125,0z"/>
	</g>
	<rect x="-316.5" y="-36.5" fill="none" stroke="#FFFFFF" stroke-width="5" stroke-miterlimit="10" width="512" height="278"/>
</g>
<g id="Annotative" display="none">
</g>
</svg>
