<?xml version="1.0" encoding="utf-8"?>
<!-- Generator: Adobe Illustrator 16.0.0, SVG Export Plug-In . SVG Version: 6.00 Build 0)  -->
<!DOCTYPE svg PUBLIC "-//W3C//DTD SVG 1.1//EN" "http://www.w3.org/Graphics/SVG/1.1/DTD/svg11.dtd">
<svg version="1.1" id="Layer_1" xmlns="http://www.w3.org/2000/svg" xmlns:xlink="http://www.w3.org/1999/xlink" x="0px" y="0px"
	 width="80.582px" height="67.772px" viewBox="0 0 80.582 67.772" enable-background="new 0 0 80.582 67.772" xml:space="preserve">
<rect x="-105" y="68.545" fill="none" width="230.833" height="81.297"/>
<text transform="matrix(1 0 0 1 -94.9995 127.3452)" fill="#FFFFFF" font-family="'OpenSans-Bold'" font-size="30">SCANNING</text>
<g id="Cursors">
</g>
<g>
	<circle fill="#A8ACAF" cx="42.978" cy="56.571" r="5"/>
	<g>
		<path fill="#A8ACAF" d="M46.478,56.571c-0.243,4.513-6.757,4.513-7,0C39.235,52.056,46.236,52.08,46.478,56.571
			c0.104,1.924,3.104,1.934,3,0c-0.198-3.675-2.825-6.302-6.5-6.5c-3.667-0.197-6.318,3.122-6.5,6.5
			c-0.197,3.667,3.123,6.318,6.5,6.5c3.667,0.197,6.318-3.122,6.5-6.5C49.582,54.637,46.582,54.647,46.478,56.571z"/>
	</g>
</g>
</svg>
