<?xml version="1.0" encoding="utf-8"?>
<!-- Generator: Adobe Illustrator 16.0.0, SVG Export Plug-In . SVG Version: 6.00 Build 0)  -->
<!DOCTYPE svg PUBLIC "-//W3C//DTD SVG 1.1//EN" "http://www.w3.org/Graphics/SVG/1.1/DTD/svg11.dtd">
<svg version="1.1" id="Layer_1" xmlns="http://www.w3.org/2000/svg" xmlns:xlink="http://www.w3.org/1999/xlink" x="0px" y="0px"
	 width="80.582px" height="67.772px" viewBox="0 0 80.582 67.772" enable-background="new 0 0 80.582 67.772" xml:space="preserve">
<rect x="-13.418" y="67.772" fill="none" width="230.833" height="81.297"/>
<text transform="matrix(1 0 0 1 -3.418 126.5728)" fill="#FFFFFF" font-family="'OpenSans-Bold'" font-size="30">SCANNING</text>
<g id="Cursors">
</g>
<g>
	<g>
		<path fill="#FFFFFF" d="M31.81,55.026c-0.295,5.478-8.205,5.478-8.5,0C23.015,49.546,31.516,49.575,31.81,55.026
			c0.052,0.962,1.552,0.967,1.5,0c-0.175-3.255-2.495-5.575-5.75-5.75c-3.248-0.175-5.589,2.759-5.75,5.75
			c-0.175,3.248,2.759,5.589,5.75,5.75c3.248,0.175,5.589-2.759,5.75-5.75C33.362,54.06,31.861,54.064,31.81,55.026z"/>
	</g>
</g>
</svg>
