<?xml version="1.0" encoding="utf-8"?>
<!-- Generator: Adobe Illustrator 16.0.0, SVG Export Plug-In . SVG Version: 6.00 Build 0)  -->
<!DOCTYPE svg PUBLIC "-//W3C//DTD SVG 1.1//EN" "http://www.w3.org/Graphics/SVG/1.1/DTD/svg11.dtd">
<svg version="1.1" id="Layer_1" xmlns="http://www.w3.org/2000/svg" xmlns:xlink="http://www.w3.org/1999/xlink" x="0px" y="0px"
	 width="640px" height="77px" viewBox="0 0 640 77" enable-background="new 0 0 640 77" xml:space="preserve">
<g>
	<path fill="#F1C40F" d="M640,0H524v-0.123c0-0.002-0.082-0.012-0.25-0.012c-21.263,0-38.375,17.237-38.375,38.5
		c0,21.262,17.3,38.708,38.562,38.708c1.55,0,3.138-0.073,4.64-0.073H640V0z"/>
	<path fill="#FFFFFF" d="M524.833,8.029c-16.568,0-30,13.431-30,30s13.432,30,30,30s30-13.431,30-30S541.402,8.029,524.833,8.029z
		 M523,61.571l-7-3.712V48.95l7,3.281V61.571z M524.458,50.634l-8.318-3.119l8.318-2.258l8.353,2.258L524.458,50.634z M534,57.689
		l-9,3.625v-9.161l9-3.205V57.689z M524.477,39.945l-8.893-4.586l18-0.169L524.477,39.945z"/>
	<g>
		<polygon fill="none" stroke="#F1C40F" stroke-miterlimit="10" points="512.5,18.2 512.5,27.108 519.5,30.82 519.5,21.481 		"/>
		<polygon fill="none" stroke="#F1C40F" stroke-miterlimit="10" points="512.391,16.765 520.708,19.884 529.062,16.765 
			520.708,14.507 		"/>
		<polygon fill="none" stroke="#F1C40F" stroke-miterlimit="10" points="521.5,21.404 521.5,30.565 530.5,26.939 530.5,18.2 		"/>
	</g>
</g>
<g id="Cursors">
</g>
</svg>
