<?xml version="1.0" encoding="utf-8"?>
<!-- Generator: Adobe Illustrator 16.0.0, SVG Export Plug-In . SVG Version: 6.00 Build 0)  -->
<!DOCTYPE svg PUBLIC "-//W3C//DTD SVG 1.1//EN" "http://www.w3.org/Graphics/SVG/1.1/DTD/svg11.dtd">
<svg version="1.1" id="Layer_1" xmlns="http://www.w3.org/2000/svg" xmlns:xlink="http://www.w3.org/1999/xlink" x="0px" y="0px"
	 width="640px" height="77px" viewBox="0 0 640 77" enable-background="new 0 0 640 77" xml:space="preserve">
<rect x="232.531" y="57.726" fill="none" width="230.833" height="81.297"/>
<text transform="matrix(1 0 0 1 242.5312 116.5264)" fill="#FFFFFF" font-family="'OpenSans-Bold'" font-size="30">PRINTING</text>
<path fill="#99A3A3" d="M640,0H524v-0.196c0-0.002-0.082-0.012-0.25-0.012c-21.263,0-38.375,17.237-38.375,38.5
	c0,21.262,17.3,38.744,38.562,38.744c1.55,0,3.138-0.037,4.64-0.037H640V0z"/>
<path fill="#FFFFFF" d="M524.833,7.956c-16.568,0-30,13.431-30,30s13.432,30,30,30s30-13.431,30-30S541.402,7.956,524.833,7.956z
	 M523,61.498l-7-3.712v-8.909l7,3.281V61.498z M524.458,50.561l-8.318-3.119l8.318-2.258l8.353,2.258L524.458,50.561z M534,57.616
	l-9,3.625v-9.161l9-3.205V57.616z M524.477,39.872l-8.893-4.586l18-0.169L524.477,39.872z"/>
<g>
	<polygon fill="none" stroke="#99A3A3" stroke-miterlimit="10" points="512.5,18.126 512.5,27.035 519.5,30.747 519.5,21.408 	"/>
	<polygon fill="none" stroke="#99A3A3" stroke-miterlimit="10" points="512.391,16.691 520.708,19.811 529.062,16.691 
		520.708,14.434 	"/>
	<polygon fill="none" stroke="#99A3A3" stroke-miterlimit="10" points="521.5,21.331 521.5,30.492 530.5,26.866 530.5,18.126 	"/>
</g>
<g id="Cursors">
</g>
</svg>
