<?xml version="1.0" encoding="utf-8"?>
<!-- Generator: Adobe Illustrator 16.0.0, SVG Export Plug-In . SVG Version: 6.00 Build 0)  -->
<!DOCTYPE svg PUBLIC "-//W3C//DTD SVG 1.1//EN" "http://www.w3.org/Graphics/SVG/1.1/DTD/svg11.dtd">
<svg version="1.1" id="Layer_1" xmlns="http://www.w3.org/2000/svg" xmlns:xlink="http://www.w3.org/1999/xlink" x="0px" y="0px"
	 width="640px" height="77px" viewBox="0 0 640 77" enable-background="new 0 0 640 77" xml:space="preserve">
<path fill="#E74C3B" d="M241-0.031h-38v-0.195c0-0.008-0.394-0.024-0.719-0.024c-21.263,0-38.375,17.237-38.375,38.5
	c0,21.262,17.3,38.75,38.562,38.75c1.55,0,3.138-0.031,4.64-0.031H241h399v-77H241z"/>
<g>
	<circle fill="#FFFFFF" cx="212.079" cy="53.253" r="1.318"/>
	<path fill="#FFFFFF" d="M202.531,8.914c-16.568,0-30,13.431-30,30s13.432,30,30,30s30-13.431,30-30S219.1,8.914,202.531,8.914z
		 M216,24v1h-10.402l2.204-1H216z M193.838,33.399l8.318-2.258l8.353,2.258l-8.353,3.119L193.838,33.399z M201,37.845v8.568
		l-7-3.406v-8.173L201,37.845z M204,37.845l8-3.011v8.21l-8,3.405V37.845z M207.211,24l-5.055,5.082L197.101,24H207.211z M188,24
		h8.563l2.205,1H188V24z M221,57.033l-37,0.171V20.206l3.342,1.549l-0.22,26.041L189.679,50h25.025L218,48.17V21.854l3-1.649V57.033
		z"/>
</g>
<rect x="232.531" y="-26.274" fill="none" width="230.833" height="81.297"/>
<text transform="matrix(1 0 0 1 242.5312 32.5264)" fill="#FFFFFF" font-family="'OpenSans-Bold'" font-size="30">PRINTING</text>
<text transform="matrix(1 0 0 1 242.5312 61.0698)" fill="#FFFFFF" font-family="'OpenSans-Bold'" font-size="21">SITING </text>
<g id="Cursors">
</g>
</svg>
