<?xml version="1.0" encoding="utf-8"?>
<!-- Generator: Adobe Illustrator 16.0.0, SVG Export Plug-In . SVG Version: 6.00 Build 0)  -->
<!DOCTYPE svg PUBLIC "-//W3C//DTD SVG 1.1//EN" "http://www.w3.org/Graphics/SVG/1.1/DTD/svg11.dtd">
<svg version="1.1" id="Layer_1" xmlns="http://www.w3.org/2000/svg" xmlns:xlink="http://www.w3.org/1999/xlink" x="0px" y="0px"
	 width="640px" height="77px" viewBox="0 0 640 77" enable-background="new 0 0 640 77" xml:space="preserve">
<g>
	<path fill="#E74C3B" d="M640-0.031h-38v-0.195c0-0.008-0.394-0.024-0.719-0.024c-21.263,0-38.375,17.237-38.375,38.5
		c0,21.262,17.3,38.75,38.562,38.75c1.55,0,3.138-0.031,4.64-0.031H640V-0.031z"/>
	<g>
		<circle fill="#FFFFFF" cx="611.079" cy="53.253" r="1.318"/>
		<path fill="#FFFFFF" d="M601.531,8.914c-16.568,0-30,13.431-30,30s13.432,30,30,30s30-13.431,30-30S618.1,8.914,601.531,8.914z
			 M615,24v1h-10.402l2.204-1H615z M592.838,33.399l8.318-2.258l8.353,2.258l-8.353,3.119L592.838,33.399z M600,37.845v8.568
			l-7-3.406v-8.173L600,37.845z M603,37.845l8-3.011v8.21l-8,3.405V37.845z M606.211,24l-5.055,5.082L596.101,24H606.211z M587,24
			h8.563l2.205,1H587V24z M620,57.033l-37,0.171V20.206l3.342,1.549l-0.22,26.041L588.679,50h25.025L617,48.17V21.854l3-1.649
			V57.033z"/>
	</g>
</g>
<g id="Cursors">
</g>
</svg>
